<svg xmlns="http://www.w3.org/2000/svg" viewBox="0 0 32 40" x="0px" y="0px"><path d="M22,2H10A4,4,0,0,0,6,6V28.7a1.109,1.109,0,0,0,1.967.7l6.485-7.926a2.064,2.064,0,0,1,3.1,0l6.678,8.162A1,1,0,0,0,26,29V6A4,4,0,0,0,22,2Zm2,24.2L19.1,20.2a4,4,0,0,0-6.192,0L8,26.2V6a2,2,0,0,1,2-2H22a2,2,0,0,1,2,2Z"/><text x="0" y="47" fill="#000000" font-size="5px" font-weight="bold" font-family="'Helvetica Neue', Helvetica, Arial-Unicode, Arial, Sans-serif">Created by Mhd Husaini</text><text x="0" y="52" fill="#000000" font-size="5px" font-weight="bold" font-family="'Helvetica Neue', Helvetica, Arial-Unicode, Arial, Sans-serif">from the Noun Project</text></svg>