<svg xmlns:dc="http://purl.org/dc/elements/1.1/" xmlns:cc="http://creativecommons.org/ns#" xmlns:rdf="http://www.w3.org/1999/02/22-rdf-syntax-ns#" xmlns:svg="http://www.w3.org/2000/svg" xmlns="http://www.w3.org/2000/svg" xmlns:sodipodi="http://sodipodi.sourceforge.net/DTD/sodipodi-0.dtd" xmlns:inkscape="http://www.inkscape.org/namespaces/inkscape" version="1.1" x="0px" y="0px" viewBox="0 0 100 125"><g transform="translate(0,-952.36218)"><path style="font-size:medium;font-style:normal;font-variant:normal;font-weight:normal;font-stretch:normal;text-indent:0;text-align:start;text-decoration:none;line-height:normal;letter-spacing:normal;word-spacing:normal;text-transform:none;direction:ltr;block-progression:tb;writing-mode:lr-tb;text-anchor:start;baseline-shift:baseline;opacity:1;color:#000000;fill:#000000;fill-opacity:1;stroke:none;stroke-width:4;marker:none;visibility:visible;display:inline;overflow:visible;enable-background:accumulate;font-family:Sans;-inkscape-font-specification:Sans" d="M 50 18 C 40.213777 18 31.325196 20.90702 24.78125 25.71875 C 18.237304 30.53047 14 37.36144 14 45 C 14 54.48482 20.561577 62.5542 30 67.3125 L 30 80 A 2.0002 2.0002 0 0 0 33.15625 81.625 L 46.625 72 L 50 72 C 59.786222 72 68.674803 69.09305 75.21875 64.28125 C 81.762697 59.46955 86 52.63852 86 45 C 86 37.36144 81.762697 30.53047 75.21875 25.71875 C 68.674803 20.90702 59.786222 18 50 18 z M 50 22 C 58.991458 22 67.082117 24.701 72.84375 28.9375 C 78.605383 33.17399 82 38.83144 82 45 C 82 51.16852 78.605384 56.826 72.84375 61.0625 C 67.082116 65.299 58.991457 68 50 68 L 46 68 A 2.0002 2.0002 0 0 0 44.84375 68.375 L 34 76.125 L 34 66.1875 A 2.0002 2.0002 0 0 0 32.84375 64.375 C 23.751279 60.1902 18 52.98802 18 45 C 18 38.83144 21.394617 33.17399 27.15625 28.9375 C 32.917883 24.701 41.008542 22 50 22 z " transform="translate(0,952.36218)"/></g><text x="0" y="115" fill="#000000" font-size="5px" font-weight="bold" font-family="'Helvetica Neue', Helvetica, Arial-Unicode, Arial, Sans-serif">Created by amy morgan</text><text x="0" y="120" fill="#000000" font-size="5px" font-weight="bold" font-family="'Helvetica Neue', Helvetica, Arial-Unicode, Arial, Sans-serif">from the Noun Project</text></svg>