<svg xmlns="http://www.w3.org/2000/svg" xmlns:xlink="http://www.w3.org/1999/xlink" version="1.1" x="0px" y="0px" viewBox="0 0 1024 1280" style="enable-background:new 0 0 1024 1024;" xml:space="preserve"><g><g><path d="M183,177.5C115,245.6,67.9,334.6,52,429.7c-7.8,46.7-9.4,94-3.1,141c6.5,49.2,20,96.2,40.9,141.2    c41,88.5,111.8,163.8,197,211.2c82.4,45.9,179.1,66.7,273.1,57.5c47-4.6,92.8-15.3,136.4-33.6c47.2-19.7,90.2-46.1,129.1-79.5    c73.1-62.8,126.1-149.2,149.1-242.8c22.4-91.3,17.6-189.8-15.6-277.9c-35.5-94-99.5-174.7-183.3-230.2    c-78.9-52.3-174.6-79.4-269.3-77.2c-95,2.2-189.6,33.2-266.3,89.6C219.8,143.8,200.7,159.8,183,177.5c-11.1,11.1-11.9,31.5,0,42.4    c12,11,30.5,11.8,42.4,0c10.4-10.4,21.3-20.3,32.6-29.6c2.6-2.1,5.3-4.2,7.9-6.3c4-3.2-6.5,4.9-0.3,0.3c1.2-0.9,2.3-1.7,3.5-2.6    c5.8-4.3,11.6-8.4,17.6-12.4c23.1-15.4,47.7-28.6,73.3-39.4c-2.4,1-4.8,2-7.2,3c35.8-15,73.5-25.3,112-30.6    c-2.7,0.4-5.3,0.7-8,1.1c39.6-5.3,79.8-5.3,119.4,0c-2.7-0.4-5.3-0.7-8-1.1c38.5,5.3,76.2,15.6,112,30.6c-2.4-1-4.8-2-7.2-3    c19.9,8.4,39.2,18.2,57.7,29.5c9.4,5.7,18.5,11.7,27.4,18.1c2.3,1.7,4.7,3.4,7,5.1c1.9,1.4,8.9,7.1,0.8,0.6    c4.5,3.6,9.1,7.2,13.5,11c17.3,14.5,33.4,30.4,48.3,47.4c3.5,4,7,8.1,10.4,12.3c1.8,2.2,3.6,4.5,5.4,6.8c2.9,3.6-2-2.6-2-2.6    c1.2,1.5,2.3,3.1,3.5,4.6c6.6,8.8,12.8,17.9,18.7,27.1c13.1,20.6,24.5,42.4,34,64.9c-1-2.4-2-4.8-3-7.2    c15,35.8,25.3,73.5,30.6,112c-0.4-2.7-0.7-5.3-1.1-8c5.3,39.6,5.3,79.8,0,119.4c0.4-2.7,0.7-5.3,1.1-8    c-5.3,38.5-15.6,76.2-30.6,112c1-2.4,2-4.8,3-7.2c-8.4,19.9-18.2,39.2-29.5,57.7c-5.7,9.4-11.7,18.5-18.1,27.4    c-1.7,2.3-3.4,4.7-5.1,7c-1.4,1.9-7.1,8.9-0.6,0.8c-3.6,4.5-7.2,9.1-11,13.5c-14.5,17.3-30.4,33.4-47.4,48.3    c-4,3.5-8.1,7-12.3,10.4c-2.2,1.8-4.5,3.6-6.8,5.4c-3.6,2.9,2.6-2,2.6-2c-1.5,1.2-3.1,2.3-4.6,3.5c-8.8,6.6-17.9,12.8-27.1,18.7    c-20.6,13.1-42.4,24.5-64.9,34c2.4-1,4.8-2,7.2-3c-35.8,15-73.5,25.3-112,30.6c2.7-0.4,5.3-0.7,8-1.1c-39.6,5.3-79.8,5.3-119.4,0    c2.7,0.4,5.3,0.7,8,1.1c-38.5-5.3-76.2-15.6-112-30.6c2.4,1,4.8,2,7.2,3c-19.9-8.4-39.2-18.2-57.7-29.5    c-9.4-5.7-18.5-11.7-27.4-18.1c-2.3-1.7-4.7-3.4-7-5.1c-1.9-1.4-8.9-7.1-0.8-0.6c-4.5-3.6-9.1-7.2-13.5-11    c-17.3-14.5-33.4-30.4-48.3-47.4c-3.5-4-7-8.1-10.4-12.3c-1.8-2.2-3.6-4.5-5.4-6.8c-2.9-3.6,2,2.6,2,2.6c-1.2-1.5-2.3-3.1-3.5-4.6    c-6.6-8.8-12.8-17.9-18.7-27.1c-13.1-20.6-24.5-42.4-34-64.9c1,2.4,2,4.8,3,7.2c-15-35.8-25.3-73.5-30.6-112    c0.4,2.7,0.7,5.3,1.1,8c-5.3-39.6-5.3-79.8,0-119.4c-0.4,2.7-0.7,5.3-1.1,8c5.3-38.5,15.6-76.2,30.6-112c-1,2.4-2,4.8-3,7.2    c10.8-25.6,24-50.2,39.4-73.3c4-6,8.1-11.8,12.4-17.6c0.9-1.2,1.7-2.3,2.6-3.5c4.6-6.1-3.5,4.4-0.3,0.3c2.1-2.7,4.2-5.3,6.3-7.9    c9.3-11.4,19.2-22.2,29.6-32.6c11.1-11.1,12-31.5,0-42.4C213.4,166.5,194.8,165.6,183,177.5z"/></g></g><g><g><path d="M487.6,482.1c-7.4,8-11.9,17.8-12,28.9c0,10.7,4.4,21.3,12,28.9c15.5,15.7,42.2,15.7,57.8,0    c15.6-15.8,15.8-42,0-57.8c-7.6-7.6-18.2-12-28.9-12C505.4,470.2,495.7,474.7,487.6,482.1c-5.5,5.1-8.8,13.8-8.8,21.2    c0,7.4,3.3,16.1,8.8,21.2c12.4,11.4,30.1,11.4,42.4,0c0.4-0.4,0.9-0.8,1.3-1.1c-2,1.6-4,3.1-6.1,4.7c0.7-0.5,1.4-0.9,2.2-1.2    c-2.4,1-4.8,2-7.2,3c0.8-0.3,1.6-0.5,2.4-0.7c-2.7,0.4-5.3,0.7-8,1.1c1.1-0.1,2.2-0.1,3.3,0c-2.7-0.4-5.3-0.7-8-1.1    c0.9,0.2,1.6,0.4,2.4,0.7c-2.4-1-4.8-2-7.2-3c0.8,0.4,1.5,0.8,2.2,1.2c-2-1.6-4-3.1-6.1-4.7c1,0.7,1.7,1.5,2.5,2.5    c-1.6-2-3.1-4-4.7-6.1c0.5,0.7,0.9,1.4,1.2,2.2c-1-2.4-2-4.8-3-7.2c0.3,0.8,0.5,1.6,0.7,2.4c-0.4-2.7-0.7-5.3-1.1-8    c0.1,1.1,0.1,2.2,0,3.3c0.4-2.7,0.7-5.3,1.1-8c-0.2,0.9-0.4,1.6-0.7,2.4c1-2.4,2-4.8,3-7.2c-0.4,0.8-0.8,1.5-1.2,2.2    c1.6-2,3.1-4,4.7-6.1c-0.7,1-1.5,1.7-2.5,2.5c2-1.6,4-3.1,6.1-4.7c-0.7,0.5-1.4,0.9-2.2,1.2c2.4-1,4.8-2,7.2-3    c-0.8,0.3-1.6,0.5-2.4,0.7c2.7-0.4,5.3-0.7,8-1.1c-1.1,0.1-2.2,0.1-3.3,0c2.7,0.4,5.3,0.7,8,1.1c-0.9-0.2-1.6-0.4-2.4-0.7    c2.4,1,4.8,2,7.2,3c-0.8-0.4-1.5-0.8-2.2-1.2c2,1.6,4,3.1,6.1,4.7c-1-0.7-1.7-1.5-2.5-2.5c1.6,2,3.1,4,4.7,6.1    c-0.5-0.7-0.9-1.4-1.2-2.2c1,2.4,2,4.8,3,7.2c-0.3-0.8-0.5-1.6-0.7-2.4c0.4,2.7,0.7,5.3,1.1,8c-0.1-1.1-0.1-2.2,0-3.3    c-0.4,2.7-0.7,5.3-1.1,8c0.2-0.9,0.4-1.6,0.7-2.4c-1,2.4-2,4.8-3,7.2c0.4-0.8,0.8-1.5,1.2-2.2c-1.6,2-3.1,4-4.7,6.1    c0.3-0.5,0.7-0.9,1.1-1.3c5.4-5.8,8.8-13.2,8.8-21.2c0-7.4-3.3-16.1-8.8-21.2c-5.7-5.2-13.2-9.1-21.2-8.8    C501.1,473.7,493.1,476.3,487.6,482.1z"/></g></g><g><g><path d="M290.4,774c11.4-4.3,22.9-8.5,34.3-12.8c27.4-10.2,54.8-20.4,82.2-30.6c32.9-12.3,65.9-24.5,98.8-36.8    c28.1-10.5,56.1-20.9,84.2-31.4c12.8-4.8,25.7-9.4,38.4-14.3c0.1,0,0.1,0,0.2-0.1c6.3-2.5,11.4-5.3,15.6-10.8    c2.5-3.2,3.9-6.4,5.4-10.2c0.1-0.3,0.2-0.5,0.3-0.8c0.6-1.7,1.3-3.3,1.9-5c2.8-7.3,5.5-14.5,8.3-21.8    c9.9-25.9,19.7-51.9,29.6-77.8c12.4-32.7,24.9-65.4,37.3-98.2c11.2-29.4,22.4-58.8,33.6-88.3c6.1-16,12.2-32.1,18.3-48.1    c0.3-0.7,0.6-1.5,0.8-2.2c7.8-20.5-16.4-44.7-36.9-36.9c-11.3,4.3-22.5,8.6-33.8,12.9c-27.1,10.3-54.2,20.6-81.3,30.9    c-32.8,12.5-65.7,25-98.5,37.5c-28.5,10.8-57,21.7-85.5,32.5c-14.1,5.4-28.2,10.6-42.3,16.1c-0.2,0.1-0.5,0.2-0.7,0.3    c-3.8,1.5-7,2.9-10.2,5.4c-5.4,4.2-8.3,9.3-10.8,15.6c0,0.1,0,0.1-0.1,0.2c-0.5,1.2-0.9,2.5-1.4,3.7c-2.5,6.6-4.9,13.3-7.4,19.9    c-9.4,25.3-18.9,50.6-28.3,76c-12.2,32.7-24.4,65.4-36.6,98.1c-11.1,29.7-22.1,59.4-33.2,89.1c-6.1,16.3-12.1,32.5-18.2,48.8    c-0.3,0.8-0.6,1.5-0.8,2.3c-2.6,6.9-0.6,17,3,23.1c3.6,6.2,10.8,12.2,17.9,13.8c17,3.9,31-5.2,36.9-21    c4.2-11.2,8.4-22.5,12.6-33.7c10-26.8,20-53.7,30-80.5c12.2-32.6,24.3-65.2,36.5-97.9c10.5-28.1,20.9-56.2,31.4-84.2    c5.1-13.7,10.6-27.3,15.3-41.2c0.1-0.2,0.1-0.4,0.2-0.6c-7,7-14,14-21,21c11.4-4.3,22.7-8.6,34.1-13c27.1-10.3,54.3-20.6,81.4-31    c33-12.5,66-25.1,99-37.6c28.5-10.8,57.1-21.7,85.6-32.5c13.8-5.2,27.8-10.1,41.5-15.8c0.2-0.1,0.4-0.2,0.6-0.2    c-12.3-12.3-24.6-24.6-36.9-36.9c-4.3,11.4-8.6,22.7-13,34.1c-10.3,27.1-20.6,54.3-31,81.4c-12.5,33-25.1,66-37.6,99    c-10.8,28.5-21.7,57.1-32.5,85.6c-5.2,13.8-10.9,27.5-15.8,41.5c-0.1,0.2-0.2,0.4-0.2,0.6c7-7,14-14,21-21    c-11.2,4.2-22.5,8.4-33.7,12.6c-26.8,10-53.7,20-80.5,30c-32.6,12.2-65.2,24.3-97.9,36.5c-28.1,10.5-56.2,20.9-84.2,31.4    c-13.7,5.1-27.5,10.1-41.2,15.3c-0.2,0.1-0.4,0.1-0.6,0.2c-7.5,2.8-13.8,6.7-17.9,13.8c-3.8,6.4-5.4,15.9-3,23.1    C258.2,767.5,274.7,779.9,290.4,774z"/></g></g><text x="0" y="1039" fill="#000000" font-size="5px" font-weight="bold" font-family="'Helvetica Neue', Helvetica, Arial-Unicode, Arial, Sans-serif">Created by shashank singh</text><text x="0" y="1044" fill="#000000" font-size="5px" font-weight="bold" font-family="'Helvetica Neue', Helvetica, Arial-Unicode, Arial, Sans-serif">from the Noun Project</text></svg>