<svg xmlns="http://www.w3.org/2000/svg" xmlns:xlink="http://www.w3.org/1999/xlink" version="1.1" x="0px" y="0px" viewBox="0 0 100 125" enable-background="new 0 0 100 100" xml:space="preserve"><path d="M84.604,20.776c-4.129-4.121-9.611-6.391-15.441-6.391s-11.313,2.27-15.438,6.393l-3.727,3.73l-3.73-3.735  c-4.124-4.124-9.606-6.396-15.437-6.396c-5.831,0-11.312,2.271-15.435,6.396c-8.507,8.511-8.507,22.36,0,30.872l33.541,33.539  c0.293,0.293,0.677,0.439,1.061,0.439s0.768-0.146,1.061-0.439l33.546-33.539C93.113,43.136,93.113,29.29,84.604,20.776z   M82.482,49.524L49.997,82.002L17.518,49.524c-7.338-7.342-7.338-19.288,0-26.63c3.556-3.558,8.283-5.517,13.313-5.517  c5.03,0,9.758,1.959,13.315,5.516l4.791,4.799c0.281,0.281,0.663,0.439,1.062,0.439c0.398,0,0.78-0.158,1.062-0.439l4.789-4.793  c3.557-3.557,8.285-5.514,13.314-5.514s9.76,1.958,13.32,5.514C89.822,30.241,89.822,42.184,82.482,49.524z"/><text x="0" y="115" fill="#000000" font-size="5px" font-weight="bold" font-family="'Helvetica Neue', Helvetica, Arial-Unicode, Arial, Sans-serif">Created by Tinashe Mugayi</text><text x="0" y="120" fill="#000000" font-size="5px" font-weight="bold" font-family="'Helvetica Neue', Helvetica, Arial-Unicode, Arial, Sans-serif">from the Noun Project</text></svg>