<svg xmlns="http://www.w3.org/2000/svg" viewBox="0 0 32 40" x="0px" y="0px"><title>home</title><g data-name="02 home"><path d="M30,16V27a3,3,0,0,1-3,3H20a1,1,0,0,1-1-1V20H13v9a1,1,0,0,1-1,1H5a3,3,0,0,1-3-3V16a1,1,0,0,1,.293-.707l13-13a1,1,0,0,1,1.414,0l13,13A1,1,0,0,1,30,16Z"/></g><text x="0" y="47" fill="#000000" font-size="5px" font-weight="bold" font-family="'Helvetica Neue', Helvetica, Arial-Unicode, Arial, Sans-serif">Created by Yushan Fahruriza</text><text x="0" y="52" fill="#000000" font-size="5px" font-weight="bold" font-family="'Helvetica Neue', Helvetica, Arial-Unicode, Arial, Sans-serif">from the Noun Project</text></svg>